<?xml version="1.0" encoding="UTF-8" standalone="no"?>
<svg width="18px" height="17px" viewBox="0 0 18 17" version="1.1" xmlns="http://www.w3.org/2000/svg" xmlns:xlink="http://www.w3.org/1999/xlink" xmlns:sketch="http://www.bohemiancoding.com/sketch/ns">
    <!-- Generator: Sketch 3.3.3 (12072) - http://www.bohemiancoding.com/sketch -->
    <title>Group</title>
    <desc>Created with Sketch.</desc>
    <defs></defs>
    <g id="Page-1" stroke="none" stroke-width="1" fill="none" fill-rule="evenodd" sketch:type="MSPage">
        <g id="List-Concept-2" sketch:type="MSArtboardGroup" transform="translate(-291.000000, -215.000000)" stroke="currentColor" stroke-linejoin="round">
            <g id="Group" sketch:type="MSLayerGroup" transform="translate(290.000000, 148.000000)">
                <g transform="translate(2.000000, 68.000000)" sketch:type="MSShapeGroup">
                    <path d="M2.32093333,4.33333333 L5.32093333,4.33333333" id="Stroke-481" stroke-linecap="round"></path>
                    <path d="M2.32093333,6.33333333 L7.65426667,6.33333333" id="Stroke-482" stroke-linecap="round"></path>
                    <path d="M2.32093333,8.33333333 L6.32093333,8.33333333" id="Stroke-483" stroke-linecap="round"></path>
                    <path d="M2.32093333,10.3333333 L5.65426667,10.3333333" id="Stroke-484" stroke-linecap="round"></path>
                    <path d="M10.6653333,14.668 L8.332,15.3346667 L8.99866667,13.0013333 L14,8 L15.6666667,9.66666667 L10.6653333,14.668 L10.6653333,14.668 Z" id="Stroke-485" stroke-linecap="round"></path>
                    <path d="M12.6666667,9.33333333 L14.3333333,11" id="Stroke-486"></path>
                    <path d="M8.99866667,13.0013333 L10.6653333,14.668" id="Stroke-487" stroke-linecap="round"></path>
                    <path d="M7.33333333,14.3333333 L0.333333333,14.3333333 L0.333333333,0.333333333 L7.66666667,0.333333333 L11,3.66666667 L10.988,8.02333333" id="Stroke-488"></path>
                    <path d="M7.66666667,0.333333333 L7.66666667,3.66666667 L11,3.66666667" id="Stroke-489" stroke-linecap="round"></path>
                </g>
            </g>
        </g>
    </g>
</svg>
