<?xml version="1.0" encoding="UTF-8" standalone="no"?>
<svg width="48px" height="44px" viewBox="0 0 48 44" version="1.1" xmlns="http://www.w3.org/2000/svg" xmlns:xlink="http://www.w3.org/1999/xlink" xmlns:sketch="http://www.bohemiancoding.com/sketch/ns">
    <!-- Generator: Sketch 3.3.3 (12072) - http://www.bohemiancoding.com/sketch -->
    <title>Group</title>
    <desc>Created with Sketch.</desc>
    <defs></defs>
    <g id="UI-Concepts-2" stroke="none" stroke-width="1" fill="none" fill-rule="evenodd" sketch:type="MSPage">
        <g id="Add-Section-Alt-Copy" sketch:type="MSArtboardGroup" transform="translate(-831.000000, -543.000000)" fill="currentColor">
            <g id="Rectangle-111-+-Group-+-TEXT-Copy-5" sketch:type="MSLayerGroup" transform="translate(820.000000, 543.000000)">
                <g id="Group" transform="translate(11.000000, 0.000000)" sketch:type="MSShapeGroup">
                    <path d="M47,0 L17,0 C16.448,0 16,0.448 16,1 L16,11 C16,11.552 16.448,12 17,12 L47,12 C47.55,12 48,11.552 48,11 L48,1 C48,0.448 47.55,0 47,0" id="Fill-443"></path>
                    <path d="M47,16 L17,16 C16.448,16 16,16.448 16,17 L16,27 C16,27.552 16.448,28 17,28 L47,28 C47.55,28 48,27.552 48,27 L48,17 C48,16.448 47.55,16 47,16" id="Fill-444"></path>
                    <path d="M47,32 L17,32 C16.448,32 16,32.448 16,33 L16,43 C16,43.552 16.448,44 17,44 L47,44 C47.55,44 48,43.552 48,43 L48,33 C48,32.448 47.55,32 47,32" id="Fill-445"></path>
                    <path d="M11,0 L1,0 C0.448,0 0,0.448 0,1 L0,11 C0,11.552 0.448,12 1,12 L11,12 C11.55,12 12,11.552 12,11 L12,1 C12,0.448 11.55,0 11,0" id="Fill-446"></path>
                    <path d="M11,16 L1,16 C0.448,16 0,16.448 0,17 L0,27 C0,27.552 0.448,28 1,28 L11,28 C11.55,28 12,27.552 12,27 L12,17 C12,16.448 11.55,16 11,16" id="Fill-447"></path>
                    <path d="M11,32 L1,32 C0.448,32 0,32.448 0,33 L0,43 C0,43.552 0.448,44 1,44 L11,44 C11.55,44 12,43.552 12,43 L12,33 C12,32.448 11.55,32 11,32" id="Fill-448"></path>
                </g>
            </g>
        </g>
    </g>
</svg>
