<?xml version="1.0" encoding="UTF-8" standalone="no"?>
<svg width="17px" height="14px" viewBox="0 0 17 14" version="1.1" xmlns="http://www.w3.org/2000/svg" xmlns:xlink="http://www.w3.org/1999/xlink" xmlns:sketch="http://www.bohemiancoding.com/sketch/ns">
    <!-- Generator: Sketch 3.3.3 (12072) - http://www.bohemiancoding.com/sketch -->
    <title>Group</title>
    <desc>Created with Sketch.</desc>
    <defs></defs>
    <g id="Group" sketch:type="MSLayerGroup" fill="currentColor">
        <path d="M1.043,2.0002 L16,2.0002 C16.553,2.0002 17,1.5522 17,1.0002 C17,0.4482 16.553,0.0002 16,0.0002 L1.043,0.0002 C0.49,0.0002 0.043,0.4482 0.043,1.0002 C0.043,1.5522 0.49,2.0002 1.043,2.0002" id="Fill-27" sketch:type="MSShapeGroup"></path>
        <path d="M16,4.0002 L1.043,4.0002 C0.49,4.0002 0.043,4.4482 0.043,5.0002 C0.043,5.5522 0.49,6.0002 1.043,6.0002 L16,6.0002 C16.553,6.0002 17,5.5522 17,5.0002 C17,4.4482 16.553,4.0002 16,4.0002" id="Fill-29" sketch:type="MSShapeGroup"></path>
        <path d="M16,8.0002 L1.043,8.0002 C0.49,8.0002 0.043,8.4482 0.043,9.0002 C0.043,9.5522 0.49,10.0002 1.043,10.0002 L16,10.0002 C16.553,10.0002 17,9.5522 17,9.0002 C17,8.4482 16.553,8.0002 16,8.0002" id="Fill-31" sketch:type="MSShapeGroup"></path>
        <path d="M16,12.0002 L1.043,12.0002 C0.49,12.0002 0.043,12.4482 0.043,13.0002 C0.043,13.5522 0.49,14.0002 1.043,14.0002 L16,14.0002 C16.553,14.0002 17,13.5522 17,13.0002 C17,12.4482 16.553,12.0002 16,12.0002" id="Fill-33" sketch:type="MSShapeGroup"></path>
    </g>
</svg>
