<?xml version="1.0" encoding="UTF-8" standalone="no"?>
<svg width="24px" height="24px" viewBox="0 0 24 24" version="1.1" xmlns="http://www.w3.org/2000/svg" xmlns:xlink="http://www.w3.org/1999/xlink" xmlns:sketch="http://www.bohemiancoding.com/sketch/ns">
    <!-- Generator: Sketch 3.3.2 (12043) - http://www.bohemiancoding.com/sketch -->
    <title>Group</title>
    <desc>Created with Sketch.</desc>
    <defs></defs>
    <g id="Page-1" stroke="none" stroke-width="1" fill="none" fill-rule="evenodd" sketch:type="MSPage">
        <g id="Filter/Search-Concept-1-(scrolling)" sketch:type="MSArtboardGroup" transform="translate(-616.000000, -94.000000)" stroke="currentColor" stroke-linejoin="round">
            <g id="Group" sketch:type="MSLayerGroup" transform="translate(616.000000, 94.000000)">
                <path d="M3.4854,6.5322 L7.9854,6.5322" id="Stroke-373" stroke-linecap="round" sketch:type="MSShapeGroup"></path>
                <path d="M3.4854,9.5322 L11.4854,9.5322" id="Stroke-374" stroke-linecap="round" sketch:type="MSShapeGroup"></path>
                <path d="M3.4854,12.5322 L9.4854,12.5322" id="Stroke-375" stroke-linecap="round" sketch:type="MSShapeGroup"></path>
                <path d="M3.4854,15.5322 L8.4854,15.5322" id="Stroke-376" stroke-linecap="round" sketch:type="MSShapeGroup"></path>
                <path d="M23.5,17.5 C23.5,20.815 20.812,23.5 17.5,23.5 C14.185,23.5 11.5,20.815 11.5,17.5 C11.5,14.186 14.185,11.5 17.5,11.5 C20.812,11.5 23.5,14.186 23.5,17.5 L23.5,17.5 Z" id="Stroke-377" sketch:type="MSShapeGroup"></path>
                <path d="M14.7715,17.5 L20.2265,17.5" id="Stroke-378" stroke-linecap="round" sketch:type="MSShapeGroup"></path>
                <path d="M17.5,20.2275 L17.5,14.7725" id="Stroke-379" stroke-linecap="round" sketch:type="MSShapeGroup"></path>
                <path d="M11,21.5322 L0.5,21.5322 L0.5,0.5322 L11.5,0.5322 L16.5,5.5322 L16.5,10.0322" id="Stroke-380" sketch:type="MSShapeGroup"></path>
                <path d="M11.5,0.5322 L11.5,5.5322 L16.5,5.5322" id="Stroke-381" stroke-linecap="round" sketch:type="MSShapeGroup"></path>
            </g>
        </g>
    </g>
</svg>
