<?xml version="1.0" encoding="UTF-8" standalone="no"?>
<svg width="24px" height="24px" viewBox="0 0 24 24" version="1.1" xmlns="http://www.w3.org/2000/svg" xmlns:xlink="http://www.w3.org/1999/xlink" xmlns:sketch="http://www.bohemiancoding.com/sketch/ns">
    <!-- Generator: Sketch 3.3.3 (12072) - http://www.bohemiancoding.com/sketch -->
    <title>Fill 5</title>
    <desc>Created with Sketch.</desc>
    <defs></defs>
    <g id="UI-Concepts-2" stroke="none" stroke-width="1" fill="none" fill-rule="evenodd" sketch:type="MSPage">
        <g id="Editing" sketch:type="MSArtboardGroup" transform="translate(-715.000000, -711.000000)" fill="currentColor">
            <g id="Group" sketch:type="MSLayerGroup" transform="translate(470.000000, 223.000000)">
                <g id="Oval-37-+-Fill-5" transform="translate(237.000000, 480.000000)" sketch:type="MSShapeGroup">
                    <path d="M31,19 L21,19 L21,9.001 C21,8.448 20.574,8 20.022,8 C19.469,8 19.022,8.447 19.022,8.999 L19.012,19 L9,19 C8.447,19 8,19.447 8,20 C8,20.552 8.447,21 9,21 L19.01,21 L19,30.999 C18.999,31.551 19.446,31.999 19.998,32 L19.999,32 C20.551,32 20.999,31.553 21,31.001 L21,21 L31,21 C31.552,21 32,20.552 32,20 C32,19.447 31.552,19 31,19" id="Fill-5"></path>
                </g>
            </g>
        </g>
    </g>
</svg>
