<?xml version="1.0" encoding="UTF-8" standalone="no"?>
<svg width="18px" height="18px" viewBox="0 0 18 18" version="1.1" xmlns="http://www.w3.org/2000/svg" xmlns:xlink="http://www.w3.org/1999/xlink" xmlns:sketch="http://www.bohemiancoding.com/sketch/ns">
    <!-- Generator: Sketch 3.3.3 (12072) - http://www.bohemiancoding.com/sketch -->
    <title>Group Copy</title>
    <desc>Created with Sketch.</desc>
    <defs></defs>
    <g id="Page-1" stroke="none" stroke-width="1" fill="none" fill-rule="evenodd" sketch:type="MSPage">
        <g id="List-Concept-2" sketch:type="MSArtboardGroup" transform="translate(-291.000000, -615.000000)" stroke="currentColor" stroke-linejoin="round">
            <g id="Group-Copy-5" sketch:type="MSLayerGroup" transform="translate(290.000000, 576.000000)">
                <g id="Group-Copy" transform="translate(2.000000, 40.000000)" sketch:type="MSShapeGroup">
                    <path d="M2.332,4.3548 L5.332,4.3548" id="Stroke-331" stroke-linecap="round"></path>
                    <path d="M2.332,6.3548 L7.66533333,6.3548" id="Stroke-332" stroke-linecap="round"></path>
                    <path d="M2.332,8.3548 L6.332,8.3548" id="Stroke-333" stroke-linecap="round"></path>
                    <path d="M2.332,10.3548 L5.66533333,10.3548" id="Stroke-334" stroke-linecap="round"></path>
                    <path d="M15.6666667,11.6666667 C15.6666667,13.8766667 13.8746667,15.6666667 11.6666667,15.6666667 C9.45733333,15.6666667 7.66666667,13.8766667 7.66666667,11.6666667 C7.66666667,9.45733333 9.45733333,7.66666667 11.6666667,7.66666667 C13.8746667,7.66666667 15.6666667,9.45733333 15.6666667,11.6666667 L15.6666667,11.6666667 Z" id="Stroke-335"></path>
                    <path d="M9.8662,13.4664667 L13.4662,9.8678" id="Stroke-175-Copy" stroke-linecap="round"></path>
                    <path d="M13.4661333,13.4664667 L9.86613333,9.86713333" id="Stroke-337" stroke-linecap="round"></path>
                    <path d="M7.33333333,14.3548 L0.333333333,14.3548 L0.333333333,0.3548 L7.66666667,0.3548 L11,3.68813333 L11,6.68813333" id="Stroke-338"></path>
                    <path d="M7.66666667,0.3548 L7.66666667,3.68813333 L11,3.68813333" id="Stroke-339" stroke-linecap="round"></path>
                </g>
            </g>
        </g>
    </g>
</svg>
