<?xml version="1.0" encoding="UTF-8" standalone="no"?>
<svg width="48px" height="46px" viewBox="0 0 48 46" version="1.1" xmlns="http://www.w3.org/2000/svg" xmlns:xlink="http://www.w3.org/1999/xlink" xmlns:sketch="http://www.bohemiancoding.com/sketch/ns">
    <!-- Generator: Sketch 3.3.3 (12072) - http://www.bohemiancoding.com/sketch -->
    <title>Group</title>
    <desc>Created with Sketch.</desc>
    <defs></defs>
    <g id="UI-Concepts-2" stroke="none" stroke-width="1" fill="none" fill-rule="evenodd" sketch:type="MSPage">
        <g id="Add-Section-Alt-Copy" sketch:type="MSArtboardGroup" transform="translate(-575.000000, -542.000000)" fill="currentColor">
            <g id="Rectangle-111-+-Group-+-TEXT-Copy-4" sketch:type="MSLayerGroup" transform="translate(575.000000, 542.000000)">
                <g id="Group" sketch:type="MSShapeGroup">
                    <path d="M35,42 L2,42 C0.894,42 0,42.896 0,44 C0,45.106 0.894,46 2,46 L35,46 C36.104,46 37,45.106 37,44 C37,42.896 36.104,42 35,42" id="Fill-646"></path>
                    <path d="M2,4 L46,4 C47.104,4 48,3.106 48,2 C48,0.896 47.104,0 46,0 L2,0 C0.894,0 0,0.896 0,2 C0,3.106 0.894,4 2,4" id="Fill-647"></path>
                    <path d="M46,6 L2,6 C0.894,6 0,6.896 0,8 C0,9.106 0.894,10 2,10 L46,10 C47.104,10 48,9.106 48,8 C48,6.896 47.104,6 46,6" id="Fill-648"></path>
                    <path d="M46,12 L2,12 C0.894,12 0,12.896 0,14 C0,15.106 0.894,16 2,16 L46,16 C47.104,16 48,15.106 48,14 C48,12.896 47.104,12 46,12" id="Fill-649"></path>
                    <path d="M46,18 L2,18 C0.894,18 0,18.896 0,20 C0,21.106 0.894,22 2,22 L46,22 C47.104,22 48,21.106 48,20 C48,18.896 47.104,18 46,18" id="Fill-650"></path>
                    <path d="M46,24 L2,24 C0.894,24 0,24.896 0,26 C0,27.106 0.894,28 2,28 L46,28 C47.104,28 48,27.106 48,26 C48,24.896 47.104,24 46,24" id="Fill-651"></path>
                    <path d="M46,30 L2,30 C0.894,30 0,30.896 0,32 C0,33.106 0.894,34 2,34 L46,34 C47.104,34 48,33.106 48,32 C48,30.896 47.104,30 46,30" id="Fill-652"></path>
                    <path d="M46,36 L2,36 C0.894,36 0,36.896 0,38 C0,39.106 0.894,40 2,40 L46,40 C47.104,40 48,39.106 48,38 C48,36.896 47.104,36 46,36" id="Fill-653"></path>
                </g>
            </g>
        </g>
    </g>
</svg>
