<?xml version="1.0" encoding="UTF-8" standalone="no"?>
<svg width="15px" height="16px" viewBox="0 0 15 16" version="1.1" xmlns="http://www.w3.org/2000/svg" xmlns:xlink="http://www.w3.org/1999/xlink" xmlns:sketch="http://www.bohemiancoding.com/sketch/ns">
    <!-- Generator: Sketch 3.3.3 (12072) - http://www.bohemiancoding.com/sketch -->
    <title>Fill 660 + Fill 661</title>
    <desc>Created with Sketch.</desc>
    <defs></defs>
    <g id="UI-Concepts-2" stroke="none" stroke-width="1" fill="none" fill-rule="evenodd" sketch:type="MSPage">
        <g id="Table-of-Contents-Alt-2" sketch:type="MSArtboardGroup" transform="translate(-278.000000, -366.000000)" fill="currentColor">
            <g id="Fill-660-+-Fill-661" sketch:type="MSLayerGroup" transform="translate(278.000000, 366.000000)">
                <path d="M11,14 L10.001,14 L10.001,6 L8,6 L8,14 L7.001,14 L7.001,6 L5,6 L5,14 L4.001,14 L4.001,6 L2,6 L2,15.5 C2,15.775 2.226,16 2.501,16 L12.5,16 C12.775,16 13.001,15.775 13.001,15.5 L13.001,6 L11,6 L11,14" id="Fill-660" sketch:type="MSShapeGroup"></path>
                <path d="M13.999,2 L10,2 L10,0.5 C10,0.226 9.774,0 9.499,0 L5.5,0 C5.225,0 4.999,0.226 4.999,0.5 L4.999,2 L1,2 C0.45,2 0,2.45 0,3 L0,4 C0,4.55 0.45,5 1,5 L13.999,5 C14.549,5 15,4.55 15,4 L15,3 C15,2.45 14.549,2 13.999,2 L13.999,2 Z M6,1 L9,1 L9,2 L6,2 L6,1 Z" id="Fill-661" sketch:type="MSShapeGroup"></path>
            </g>
        </g>
    </g>
</svg>
